<?xml version="1.0" standalone="no"?>
<!DOCTYPE svg PUBLIC "-//W3C//DTD SVG 20010904//EN"
 "http://www.w3.org/TR/2001/REC-SVG-20010904/DTD/svg10.dtd">
<svg version="1.0" xmlns="http://www.w3.org/2000/svg"
 width="512.000000pt" height="512.000000pt" viewBox="0 0 512.000000 512.000000"
 preserveAspectRatio="xMidYMid meet">

<g transform="translate(0.000000,512.000000) scale(0.100000,-0.100000)"
fill="#000000" stroke="none">
<path d="M1157 5109 c-496 -48 -929 -393 -1086 -865 -70 -209 -66 -114 -66
-1689 0 -1319 1 -1426 18 -1507 52 -254 158 -463 329 -644 183 -193 403 -316
668 -376 l105 -23 1430 0 c1117 0 1445 3 1497 13 277 52 495 167 689 361 194
194 309 412 361 689 10 52 13 379 13 1492 0 1324 -1 1431 -18 1512 -54 265
-166 477 -352 664 -216 217 -473 340 -777 373 -114 13 -1487 13 -1448 1 l25
-8 -27 -1 c-16 -1 -28 4 -28 9 0 12 -1204 11 -1333 -1z m1376 -26 c-7 -2 -19
-2 -25 0 -7 3 -2 5 12 5 14 0 19 -2 13 -5z m-253 -998 c82 -21 167 -61 227
-106 38 -28 379 -404 481 -529 2 -3 189 -7 415 -10 l412 -5 60 -29 c73 -36
136 -93 170 -155 55 -98 55 -92 55 -927 0 -735 -1 -774 -20 -848 -28 -112 -73
-190 -160 -276 -55 -55 -95 -85 -150 -112 -144 -71 -99 -68 -1214 -68 -966 0
-1006 1 -1080 20 -112 28 -190 73 -276 160 -55 55 -85 95 -112 150 -71 144
-68 99 -68 1215 0 677 4 1021 11 1057 6 29 30 94 55 144 80 164 231 283 409
323 22 5 195 9 384 10 274 1 355 -2 401 -14z"/>
<path d="M1571 3760 c-123 -26 -201 -118 -217 -258 l-7 -62 597 0 c328 0 596
3 596 6 0 3 -47 58 -104 122 -187 210 -149 196 -526 199 -162 1 -315 -2 -339
-7z"/>
<path d="M1350 2352 c0 -842 -2 -822 66 -900 20 -24 59 -55 88 -70 l51 -27
984 -3 c1094 -3 1048 -5 1129 64 24 20 55 59 70 88 l27 51 3 760 3 760 -22 18
c-20 16 -93 17 -1210 17 l-1189 0 0 -758z"/>
</g>
</svg>
